<mxfile host="app.diagrams.net" agent="Mozilla/5.0 (Windows NT 10.0; Win64; x64) AppleWebKit/537.36 (KHTML, like Gecko) Chrome/130.0.0.0 Safari/537.36" version="24.8.9">
  <diagram name="Page-1" id="P1rbxY7GNz1SIa6zZOa-">
    <mxGraphModel dx="1434" dy="746" grid="1" gridSize="10" guides="1" tooltips="1" connect="1" arrows="1" fold="1" page="1" pageScale="1" pageWidth="850" pageHeight="1100" math="0" shadow="0">
      <root>
        <mxCell id="0" />
        <mxCell id="1" parent="0" />
        <mxCell id="Y16IMp9L--_0OKPDLvka-3" style="edgeStyle=orthogonalEdgeStyle;rounded=0;orthogonalLoop=1;jettySize=auto;html=1;" edge="1" parent="1" source="Y16IMp9L--_0OKPDLvka-1" target="Y16IMp9L--_0OKPDLvka-2">
          <mxGeometry relative="1" as="geometry" />
        </mxCell>
        <mxCell id="Y16IMp9L--_0OKPDLvka-8" value="&lt;b style=&quot;font-size: 12px; text-wrap-mode: wrap; background-color: rgb(251, 251, 251);&quot;&gt;http POST request&lt;/b&gt;" style="edgeLabel;html=1;align=center;verticalAlign=middle;resizable=0;points=[];" vertex="1" connectable="0" parent="Y16IMp9L--_0OKPDLvka-3">
          <mxGeometry x="-0.1375" y="-1" relative="1" as="geometry">
            <mxPoint as="offset" />
          </mxGeometry>
        </mxCell>
        <mxCell id="Y16IMp9L--_0OKPDLvka-1" value="Actor" style="shape=umlActor;verticalLabelPosition=bottom;verticalAlign=top;html=1;outlineConnect=0;" vertex="1" parent="1">
          <mxGeometry x="30" y="330" width="30" height="60" as="geometry" />
        </mxCell>
        <mxCell id="Y16IMp9L--_0OKPDLvka-7" value="" style="edgeStyle=orthogonalEdgeStyle;rounded=0;orthogonalLoop=1;jettySize=auto;html=1;" edge="1" parent="1" source="Y16IMp9L--_0OKPDLvka-2" target="Y16IMp9L--_0OKPDLvka-6">
          <mxGeometry relative="1" as="geometry" />
        </mxCell>
        <mxCell id="Y16IMp9L--_0OKPDLvka-2" value="Process JSON Amazon API Gateway" style="sketch=0;outlineConnect=0;fontColor=#232F3E;gradientColor=none;strokeColor=#ffffff;fillColor=#232F3E;dashed=0;verticalLabelPosition=middle;verticalAlign=bottom;align=center;html=1;whiteSpace=wrap;fontSize=10;fontStyle=1;spacing=3;shape=mxgraph.aws4.productIcon;prIcon=mxgraph.aws4.api_gateway;" vertex="1" parent="1">
          <mxGeometry x="220" y="300" width="80" height="120" as="geometry" />
        </mxCell>
        <mxCell id="Y16IMp9L--_0OKPDLvka-10" value="" style="edgeStyle=orthogonalEdgeStyle;rounded=0;orthogonalLoop=1;jettySize=auto;html=1;" edge="1" parent="1" source="Y16IMp9L--_0OKPDLvka-6" target="Y16IMp9L--_0OKPDLvka-9">
          <mxGeometry relative="1" as="geometry" />
        </mxCell>
        <mxCell id="Y16IMp9L--_0OKPDLvka-6" value="Process JSON Amazon Lambda Function" style="sketch=0;outlineConnect=0;fontColor=#232F3E;gradientColor=none;strokeColor=#ffffff;fillColor=#232F3E;dashed=0;verticalLabelPosition=middle;verticalAlign=bottom;align=center;html=1;whiteSpace=wrap;fontSize=10;fontStyle=1;spacing=3;shape=mxgraph.aws4.productIcon;prIcon=mxgraph.aws4.lambda;" vertex="1" parent="1">
          <mxGeometry x="385" y="295" width="80" height="130" as="geometry" />
        </mxCell>
        <mxCell id="Y16IMp9L--_0OKPDLvka-12" style="edgeStyle=orthogonalEdgeStyle;rounded=0;orthogonalLoop=1;jettySize=auto;html=1;" edge="1" parent="1" source="Y16IMp9L--_0OKPDLvka-9" target="Y16IMp9L--_0OKPDLvka-11">
          <mxGeometry relative="1" as="geometry" />
        </mxCell>
        <mxCell id="Y16IMp9L--_0OKPDLvka-13" value="Yes, send notification to client email" style="edgeLabel;html=1;align=center;verticalAlign=middle;resizable=0;points=[];" vertex="1" connectable="0" parent="Y16IMp9L--_0OKPDLvka-12">
          <mxGeometry x="-0.2308" y="-2" relative="1" as="geometry">
            <mxPoint as="offset" />
          </mxGeometry>
        </mxCell>
        <mxCell id="Y16IMp9L--_0OKPDLvka-15" style="edgeStyle=orthogonalEdgeStyle;rounded=0;orthogonalLoop=1;jettySize=auto;html=1;" edge="1" parent="1" source="Y16IMp9L--_0OKPDLvka-9" target="Y16IMp9L--_0OKPDLvka-14">
          <mxGeometry relative="1" as="geometry" />
        </mxCell>
        <mxCell id="Y16IMp9L--_0OKPDLvka-16" value="No, add to error table and calculate TTL" style="edgeLabel;html=1;align=center;verticalAlign=middle;resizable=0;points=[];" vertex="1" connectable="0" parent="Y16IMp9L--_0OKPDLvka-15">
          <mxGeometry x="-0.0667" y="-1" relative="1" as="geometry">
            <mxPoint as="offset" />
          </mxGeometry>
        </mxCell>
        <mxCell id="Y16IMp9L--_0OKPDLvka-9" value="is JSON valid?" style="rhombus;whiteSpace=wrap;html=1;" vertex="1" parent="1">
          <mxGeometry x="540" y="320" width="80" height="80" as="geometry" />
        </mxCell>
        <mxCell id="Y16IMp9L--_0OKPDLvka-11" value="Amazon SNS" style="sketch=0;outlineConnect=0;fontColor=#232F3E;gradientColor=none;strokeColor=#ffffff;fillColor=#232F3E;dashed=0;verticalLabelPosition=middle;verticalAlign=bottom;align=center;html=1;whiteSpace=wrap;fontSize=10;fontStyle=1;spacing=3;shape=mxgraph.aws4.productIcon;prIcon=mxgraph.aws4.sns;" vertex="1" parent="1">
          <mxGeometry x="540" y="90" width="80" height="100" as="geometry" />
        </mxCell>
        <mxCell id="Y16IMp9L--_0OKPDLvka-18" style="edgeStyle=orthogonalEdgeStyle;rounded=0;orthogonalLoop=1;jettySize=auto;html=1;" edge="1" parent="1" source="Y16IMp9L--_0OKPDLvka-14" target="Y16IMp9L--_0OKPDLvka-17">
          <mxGeometry relative="1" as="geometry" />
        </mxCell>
        <mxCell id="Y16IMp9L--_0OKPDLvka-19" value="TTL expires" style="edgeLabel;html=1;align=center;verticalAlign=middle;resizable=0;points=[];" vertex="1" connectable="0" parent="Y16IMp9L--_0OKPDLvka-18">
          <mxGeometry x="-0.1273" y="-1" relative="1" as="geometry">
            <mxPoint as="offset" />
          </mxGeometry>
        </mxCell>
        <mxCell id="Y16IMp9L--_0OKPDLvka-14" value="Amazon DynamoDB&lt;div&gt;(ErrorTable)&lt;/div&gt;" style="sketch=0;outlineConnect=0;fontColor=#232F3E;gradientColor=none;strokeColor=#ffffff;fillColor=#232F3E;dashed=0;verticalLabelPosition=middle;verticalAlign=bottom;align=center;html=1;whiteSpace=wrap;fontSize=10;fontStyle=1;spacing=3;shape=mxgraph.aws4.productIcon;prIcon=mxgraph.aws4.dynamodb;" vertex="1" parent="1">
          <mxGeometry x="540" y="520" width="80" height="120" as="geometry" />
        </mxCell>
        <mxCell id="Y16IMp9L--_0OKPDLvka-21" style="edgeStyle=orthogonalEdgeStyle;rounded=0;orthogonalLoop=1;jettySize=auto;html=1;entryX=1;entryY=0.3;entryDx=0;entryDy=0;entryPerimeter=0;" edge="1" parent="1" source="Y16IMp9L--_0OKPDLvka-17" target="Y16IMp9L--_0OKPDLvka-11">
          <mxGeometry relative="1" as="geometry">
            <mxPoint x="760" y="120" as="targetPoint" />
            <Array as="points">
              <mxPoint x="770" y="120" />
            </Array>
          </mxGeometry>
        </mxCell>
        <mxCell id="Y16IMp9L--_0OKPDLvka-22" value="Notify client for the invalid JSON" style="edgeLabel;html=1;align=center;verticalAlign=middle;resizable=0;points=[];" vertex="1" connectable="0" parent="Y16IMp9L--_0OKPDLvka-21">
          <mxGeometry x="-0.2073" y="4" relative="1" as="geometry">
            <mxPoint as="offset" />
          </mxGeometry>
        </mxCell>
        <mxCell id="Y16IMp9L--_0OKPDLvka-17" value="Cleanup Amazon Lambda Function" style="sketch=0;outlineConnect=0;fontColor=#232F3E;gradientColor=none;strokeColor=#ffffff;fillColor=#232F3E;dashed=0;verticalLabelPosition=middle;verticalAlign=bottom;align=center;html=1;whiteSpace=wrap;fontSize=10;fontStyle=1;spacing=3;shape=mxgraph.aws4.productIcon;prIcon=mxgraph.aws4.lambda;" vertex="1" parent="1">
          <mxGeometry x="730" y="515" width="80" height="130" as="geometry" />
        </mxCell>
      </root>
    </mxGraphModel>
  </diagram>
</mxfile>
